<?xml version="1.0" encoding="utf-8"?>
<!-- Generator: Adobe Illustrator 16.0.0, SVG Export Plug-In . SVG Version: 6.00 Build 0)  -->
<!DOCTYPE svg PUBLIC "-//W3C//DTD SVG 1.1//EN" "http://www.w3.org/Graphics/SVG/1.1/DTD/svg11.dtd">
<svg version="1.1" id="Capa_1" xmlns="http://www.w3.org/2000/svg" xmlns:xlink="http://www.w3.org/1999/xlink" x="0px" y="0px"
	 width="512px" height="512px" viewBox="0 0 512 512" enable-background="new 0 0 512 512" xml:space="preserve">
<g>
	<g>
		<path fill="#E21E24" d="M458.105,303.373v-2.461V197.614v-4.491V85.333v-4.491c0-1.635-0.557-3.081-1.312-4.402
			C446.401,37.906,368.981,0,233.544,0S20.687,37.906,10.294,76.44c-0.754,1.321-1.312,2.767-1.312,4.402v4.491v107.79v4.491
			v103.298v4.491v107.79c0,1.455,0.377,2.829,1.051,4.051c10.6,43.969,105.517,76.791,223.511,76.791
			c28.438,0,56.113-1.977,82.423-5.775c19.582,14.83,43.879,23.74,70.279,23.74c64.386,0,116.771-52.386,116.771-116.771
			C503.018,357.951,485.394,324.77,458.105,303.373z M428.903,286.639c-1.258-0.494-2.524-0.934-3.791-1.392
			c-2.793-0.988-5.632-1.868-8.515-2.649c-1.438-0.387-2.865-0.782-4.312-1.114c-2.938-0.674-5.92-1.187-8.938-1.635
			c-1.33-0.198-2.642-0.458-3.979-0.61c-4.32-0.477-8.686-0.782-13.123-0.782c-3.729,0-7.402,0.216-11.049,0.565
			c-1.213,0.117-2.398,0.314-3.602,0.459c-2.417,0.305-4.824,0.646-7.195,1.104c-1.375,0.261-2.722,0.565-4.069,0.88
			c-2.2,0.504-4.374,1.061-6.53,1.689c-1.311,0.377-2.623,0.764-3.916,1.194c-2.264,0.745-4.491,1.581-6.691,2.452
			c-1.069,0.422-2.156,0.817-3.207,1.275c-2.974,1.285-5.884,2.686-8.723,4.204c-0.225,0.126-0.467,0.225-0.7,0.351
			c-3.216,1.751-6.323,3.655-9.351,5.686c-0.332,0.225-0.646,0.477-0.979,0.709c-2.604,1.788-5.129,3.684-7.581,5.678
			c-0.602,0.484-1.168,0.996-1.761,1.5c-2.146,1.823-4.23,3.71-6.243,5.677c-0.61,0.602-1.212,1.203-1.814,1.823
			c-1.931,1.977-3.79,4.024-5.578,6.145c-0.547,0.646-1.104,1.275-1.635,1.931c-1.814,2.236-3.521,4.536-5.174,6.907
			c-0.412,0.594-0.854,1.159-1.248,1.752c-1.949,2.919-3.809,5.92-5.497,9.036c-0.135,0.243-0.243,0.494-0.378,0.737
			c-1.5,2.812-2.9,5.703-4.176,8.658c-0.746,1.716-1.375,3.504-2.049,5.264c-0.539,1.438-1.104,2.866-1.59,4.33
			c-0.7,2.093-1.293,4.239-1.877,6.387c-0.189,0.691-0.432,1.347-0.602,2.048c-3.576,0.242-7.16,0.458-10.752,0.629
			c-2.398,0.116-4.779,0.27-7.178,0.359c-7.186,0.233-14.381,0.395-21.558,0.395c-7.429,0-14.704-0.144-21.845-0.395
			c-4.33-0.162-8.506-0.44-12.729-0.683c-2.667-0.153-5.417-0.252-8.039-0.44c-5.605-0.404-11.048-0.925-16.429-1.482
			c-1.078-0.116-2.209-0.188-3.278-0.305c-6.162-0.674-12.162-1.446-18.01-2.3c-0.216-0.027-0.44-0.054-0.647-0.081
			c-30.352-4.482-56.401-11.317-76.782-19.447c-0.153-0.062-0.314-0.116-0.458-0.18c-3.719-1.5-7.213-3.036-10.545-4.616
			c-0.422-0.198-0.871-0.396-1.293-0.603c-2.991-1.437-5.749-2.919-8.398-4.41c-0.656-0.377-1.347-0.745-1.985-1.123
			c-2.3-1.347-4.401-2.73-6.414-4.113c-0.799-0.558-1.617-1.105-2.362-1.662c-1.689-1.249-3.216-2.515-4.671-3.781
			c-0.827-0.719-1.644-1.438-2.39-2.165c-1.194-1.159-2.236-2.317-3.225-3.477c-0.719-0.844-1.401-1.688-2.012-2.542
			c-0.781-1.087-1.446-2.174-2.039-3.261c-0.494-0.907-0.934-1.814-1.311-2.722c-0.431-1.068-0.772-2.138-1.024-3.197
			c-0.342-1.464-0.71-2.929-0.71-4.384v-73.719c0.162,0.144,0.351,0.287,0.512,0.431c2.084,1.841,4.222,3.674,6.629,5.434
			c33.882,25.555,101.502,45.397,199.456,45.397c97.729,0,165.241-19.753,199.204-45.218c2.604-1.904,4.94-3.871,7.177-5.865
			c0.072-0.063,0.152-0.126,0.216-0.189v64.503c-0.477-0.252-0.988-0.414-1.474-0.665
			C435.487,289.424,432.235,287.951,428.903,286.639z M32.346,123.931c2.695,2.12,5.605,4.212,8.758,6.251
			c0.656,0.422,1.393,0.835,2.075,1.258c2.641,1.644,5.435,3.251,8.372,4.833c1.087,0.583,2.174,1.159,3.296,1.733
			c3.279,1.671,6.719,3.288,10.339,4.869c0.593,0.26,1.132,0.53,1.734,0.781c4.212,1.788,8.686,3.494,13.339,5.138
			c1.285,0.458,2.632,0.889,3.952,1.338c3.701,1.249,7.527,2.443,11.489,3.602c1.428,0.413,2.829,0.844,4.293,1.249
			c5.255,1.455,10.68,2.838,16.375,4.114c0.782,0.18,1.626,0.333,2.417,0.503c5.021,1.096,10.231,2.111,15.584,3.054
			c1.814,0.323,3.656,0.629,5.506,0.934c5.093,0.835,10.339,1.608,15.719,2.309c1.383,0.18,2.704,0.377,4.105,0.557
			c6.683,0.808,13.599,1.5,20.705,2.093c1.751,0.144,3.575,0.251,5.354,0.377c5.686,0.414,11.498,0.755,17.444,1.024
			c2.165,0.099,4.32,0.197,6.53,0.27c7.752,0.26,15.638,0.449,23.812,0.449c8.174,0,16.061-0.188,23.804-0.449
			c2.2-0.072,4.356-0.18,6.529-0.27c5.947-0.27,11.759-0.611,17.444-1.024c1.778-0.135,3.593-0.233,5.354-0.377
			c7.105-0.584,14.022-1.285,20.705-2.093c1.401-0.171,2.722-0.377,4.104-0.557c5.381-0.701,10.617-1.473,15.72-2.309
			c1.851-0.305,3.691-0.611,5.506-0.934c5.354-0.943,10.563-1.958,15.585-3.054c0.79-0.17,1.635-0.323,2.416-0.503
			c5.695-1.275,11.12-2.659,16.375-4.114c1.465-0.404,2.865-0.827,4.294-1.249c3.961-1.15,7.788-2.354,11.488-3.602
			c1.32-0.449,2.668-0.88,3.952-1.338c4.653-1.653,9.135-3.359,13.339-5.138c0.603-0.251,1.141-0.53,1.733-0.781
			c3.62-1.581,7.061-3.198,10.339-4.869c1.123-0.575,2.219-1.15,3.297-1.733c2.938-1.572,5.73-3.18,8.372-4.833
			c0.683-0.422,1.419-0.835,2.074-1.258c3.153-2.039,6.063-4.123,8.758-6.251c0.674-0.539,1.276-1.078,1.932-1.617
			c1.168-0.97,2.398-1.931,3.477-2.91v73.719c0,1.464-0.368,2.937-0.719,4.41c-0.252,1.051-0.584,2.093-1.006,3.153
			c-0.378,0.925-0.827,1.851-1.33,2.775c-0.593,1.069-1.239,2.138-2.003,3.207c-0.62,0.862-1.32,1.725-2.048,2.596
			c-0.97,1.141-2.003,2.282-3.171,3.414c-0.764,0.746-1.599,1.482-2.443,2.219c-1.437,1.249-2.937,2.497-4.607,3.728
			c-0.772,0.575-1.617,1.141-2.435,1.707c-1.994,1.375-4.069,2.74-6.342,4.069c-0.664,0.395-1.374,0.781-2.065,1.167
			c-2.623,1.482-5.363,2.946-8.318,4.375c-0.439,0.207-0.925,0.422-1.374,0.638c-3.314,1.563-6.773,3.099-10.474,4.581
			c-0.171,0.063-0.351,0.135-0.521,0.198c-20.382,8.12-46.404,14.956-76.737,19.438c-0.216,0.027-0.449,0.054-0.665,0.09
			c-5.848,0.853-11.839,1.625-17.992,2.299c-1.077,0.117-2.209,0.197-3.296,0.306c-5.381,0.557-10.815,1.077-16.411,1.481
			c-2.632,0.189-5.381,0.288-8.057,0.44c-4.213,0.243-8.391,0.53-12.72,0.683c-7.159,0.252-14.435,0.396-21.863,0.396
			c-7.429,0-14.704-0.144-21.845-0.396c-4.33-0.161-8.506-0.439-12.729-0.683c-2.667-0.152-5.417-0.251-8.039-0.44
			c-5.605-0.404-11.048-0.925-16.429-1.481c-1.078-0.116-2.209-0.188-3.278-0.306c-6.162-0.674-12.162-1.446-18.01-2.299
			c-0.216-0.027-0.44-0.054-0.647-0.081c-30.352-4.482-56.401-11.318-76.782-19.447c-0.153-0.063-0.314-0.117-0.458-0.18
			c-3.719-1.5-7.213-3.036-10.545-4.617c-0.422-0.197-0.871-0.395-1.293-0.602c-2.991-1.438-5.749-2.919-8.398-4.411
			c-0.656-0.377-1.347-0.746-1.985-1.123c-2.3-1.348-4.401-2.731-6.414-4.114c-0.799-0.557-1.617-1.104-2.362-1.662
			c-1.689-1.249-3.216-2.515-4.671-3.782c-0.827-0.718-1.644-1.437-2.39-2.165c-1.194-1.159-2.236-2.317-3.225-3.476
			c-0.719-0.845-1.401-1.689-2.012-2.542c-0.781-1.087-1.446-2.174-2.039-3.261c-0.494-0.907-0.934-1.814-1.311-2.722
			c-0.431-1.069-0.772-2.138-1.024-3.198c-0.342-1.464-0.71-2.928-0.71-4.383v-73.719c1.078,0.979,2.309,1.94,3.477,2.91
			C31.07,122.853,31.672,123.392,32.346,123.931z M233.544,17.965c121.748,0,206.597,35.499,206.597,67.369
			c0,31.87-84.849,67.368-206.597,67.368S26.947,117.203,26.947,85.333C26.947,53.463,111.796,17.965,233.544,17.965z
			 M233.544,476.07c-117.104,0-201.216-33.262-206.309-64.332c-0.072-0.404-0.162-0.8-0.288-1.177v-75.579
			c0.162,0.144,0.351,0.288,0.512,0.432c2.084,1.841,4.222,3.674,6.629,5.435c33.882,25.555,101.502,45.397,199.456,45.397
			c7.159,0,14.336-0.171,21.504-0.423c2.147-0.071,4.275-0.188,6.423-0.287c2.82-0.126,5.658-0.207,8.471-0.377
			c-0.307,3.413-0.468,6.772-0.468,10.069c0,3.817,0.216,7.607,0.575,11.362c0.117,1.213,0.341,2.398,0.494,3.593
			c0.323,2.533,0.664,5.058,1.158,7.546c0.261,1.32,0.602,2.604,0.907,3.916c0.548,2.345,1.114,4.68,1.797,6.988
			c0.368,1.239,0.8,2.452,1.212,3.683c0.782,2.327,1.608,4.635,2.533,6.917c0.449,1.104,0.926,2.183,1.41,3.261
			c1.033,2.335,2.139,4.635,3.324,6.898c0.512,0.961,1.033,1.922,1.562,2.874c1.285,2.281,2.641,4.519,4.078,6.71
			c0.575,0.88,1.15,1.752,1.742,2.614c1.492,2.146,3.063,4.23,4.698,6.278c0.674,0.854,1.348,1.707,2.048,2.533
			c0.566,0.674,1.078,1.393,1.662,2.057C277.675,474.849,255.847,476.07,233.544,476.07z M386.246,494.035
			c-23.714,0-45.496-8.417-62.545-22.385c-2.633-2.164-5.139-4.446-7.51-6.826c-0.971-0.979-1.851-2.039-2.775-3.054
			c-1.356-1.482-2.722-2.965-3.979-4.519c-1.069-1.32-2.048-2.704-3.054-4.078c-0.997-1.365-1.985-2.73-2.901-4.141
			c-0.962-1.474-1.859-2.982-2.739-4.5c-0.836-1.446-1.635-2.901-2.398-4.384c-0.781-1.527-1.537-3.072-2.237-4.644
			c-0.728-1.617-1.383-3.261-2.012-4.914c-0.584-1.5-1.159-3.009-1.671-4.545c-0.611-1.868-1.123-3.772-1.626-5.677
			c-0.368-1.401-0.781-2.794-1.087-4.222c-0.484-2.246-0.826-4.527-1.149-6.817c-0.171-1.159-0.404-2.3-0.53-3.485
			c-0.377-3.513-0.593-7.052-0.593-10.617c0-3.081,0.188-6.117,0.468-9.136c0.287-2.946,0.709-5.938,1.284-9.019
			c0.448-2.434,1.042-4.806,1.661-7.168c0.171-0.655,0.324-1.312,0.504-1.967c0.565-1.977,1.23-3.907,1.904-5.82
			c0.377-1.052,0.745-2.103,1.149-3.145c0.628-1.59,1.312-3.161,2.021-4.706c0.611-1.339,1.249-2.677,1.923-3.988
			c0.646-1.258,1.312-2.497,2.003-3.729c0.898-1.58,1.851-3.126,2.829-4.652c0.603-0.943,1.194-1.887,1.833-2.812
			c1.258-1.814,2.596-3.575,3.97-5.3c0.477-0.593,0.917-1.204,1.401-1.787c1.868-2.246,3.826-4.411,5.893-6.485
			c0.054-0.055,0.099-0.108,0.152-0.162c4.365-4.356,9.145-8.3,14.256-11.794c0.584-0.396,1.203-0.755,1.796-1.141
			c1.904-1.239,3.845-2.435,5.839-3.548c0.916-0.513,1.851-0.971,2.775-1.446c1.734-0.898,3.494-1.761,5.281-2.552
			c1.097-0.484,2.201-0.934,3.314-1.383c1.707-0.683,3.441-1.312,5.192-1.904c1.194-0.395,2.39-0.791,3.603-1.141
			c1.77-0.521,3.574-0.961,5.38-1.383c1.204-0.279,2.407-0.576,3.629-0.818c1.994-0.386,4.024-0.664,6.063-0.934
			c1.068-0.135,2.119-0.324,3.188-0.422c3.136-0.288,6.288-0.468,9.495-0.468c3.062,0,6.08,0.188,9.072,0.458
			c0.934,0.081,1.859,0.207,2.793,0.324c2.102,0.251,4.177,0.574,6.234,0.951c0.996,0.189,1.994,0.369,2.99,0.584
			c2.192,0.477,4.348,1.051,6.477,1.671c0.719,0.206,1.446,0.378,2.156,0.593c2.632,0.836,5.201,1.797,7.733,2.839
			c1.213,0.503,2.39,1.069,3.584,1.616c1.384,0.638,2.749,1.285,4.097,1.977c1.338,0.691,2.658,1.419,3.97,2.174
			c1.123,0.646,2.21,1.32,3.306,2.012c1.356,0.854,2.713,1.698,4.033,2.623c25.564,17.875,42.361,47.49,42.361,80.986
			C485.053,449.707,440.725,494.035,386.246,494.035z"/>
		<path fill="#E21E24" d="M440.141,386.246h-44.912v-44.913c0-4.967-4.024-8.982-8.982-8.982c-4.959,0-8.982,4.016-8.982,8.982
			v44.913h-44.912c-4.959,0-8.983,4.015-8.983,8.982c0,4.967,4.024,8.982,8.983,8.982h44.912v44.912
			c0,4.967,4.023,8.982,8.982,8.982c4.958,0,8.982-4.016,8.982-8.982v-44.912h44.912c4.958,0,8.982-4.016,8.982-8.982
			C449.123,390.261,445.099,386.246,440.141,386.246z"/>
	</g>
</g>
</svg>
