 <svg xml:space="preserve" viewBox="0 0 100 100" y="0" x="0" xmlns="http://www.w3.org/2000/svg" id="Layer_1" version="1.1" style="height: 50px; width: 50px; " width="128px" height="128px">
                        <g class="ldl-scale" style="transform-origin: 50% 50%; transform: rotate(0deg) scale(0.8, 0.8);">
                            <g class="ldl-ani" id="salt" style="transform: matrix(1, 0, 0, 1, 0, 0); transform-origin: 50px 50px; animation: 1.11111s linear 5s infinite normal forwards running bounce-123;">
                                <g class="ldl-layer">
                                    <g class="ldl-ani" style="transform-origin: 50px 50px;">
                                        <g>
                                            <g class="ldl-layer">
                                                <g class="ldl-ani" style="transform-origin: 50px 50px;">
                                                    <path fill="#fff" d="M38.9 86.2c-2.1 0-4-.8-5.5-2.4-1.4-1.5-2.1-3.5-2-5.6l2.9-43.9c.2-3.2 2.8-5.6 6-5.6h19.3c3.2 0 5.8 2.5 6 5.6l2.9 43.9c.1 2.1-.6 4.1-2 5.6s-3.4 2.4-5.5 2.4H38.9z" style="fill: rgb(255, 255, 255);">
                                                    </path>
                                                </g>
                                            </g>
                                            <g class="ldl-layer">
                                                <g class="ldl-ani" style="transform-origin: 50px 50px;">
                                                    <path fill="#e0e0e0" d="M59.7 30.5c2.2 0 4.1 1.8 4.3 4l2.9 43.9c.1 1.6-.4 3.1-1.5 4.3-1.1 1.2-2.6 1.8-4.2 1.8H38.9c-1.6 0-3.1-.6-4.2-1.8-1.1-1.2-1.6-2.7-1.5-4.3l2.9-43.9c.1-2.2 2-4 4.3-4h19.3m0-3.5H40.3c-4.1 0-7.5 3.2-7.8 7.3l-2.9 43.9c-.4 5.3 3.9 9.8 9.2 9.8h22.3c5.3 0 9.6-4.5 9.2-9.8l-2.9-43.9c-.2-4.1-3.6-7.3-7.7-7.3z" style="fill: rgb(140, 140, 140);">
                                                    </path>
                                                </g>
                                            </g>
                                        </g>
                                    </g>
                                </g>
                                <g class="ldl-layer">
                                    <g class="ldl-ani" style="transform-origin: 50px 50px;">
                                        <path fill="#e0e0e0" d="M64 23.8c1.5-1.5 2-3.5 2-5.7C66 12.7 63 9 50 9s-16 3.7-16 9.1c0 2.2.5 4.2 2 5.7-.9.2-1.7 1.1-1.7 2.1v.9c0 1.2 1 2.1 2.1 2.1h27c1.2 0 2.1-1 2.1-2.1v-.9c.2-1-.6-1.8-1.5-2.1z" style="fill: rgb(140, 140, 140);">
                                        </path>
                                    </g>
                                </g>
                                <g class="ldl-layer">
                                    <g class="ldl-ani" style="transform-origin: 50px 50px;">
                                        <g>
                                            <g class="ldl-layer">
                                                <g class="ldl-ani" style="transform-origin: 50px 50px;">
                                                    <ellipse fill="#333" ry=".9" rx="1.3" cy="12.5" cx="45.7" style="fill: rgb(210, 243, 255);"></ellipse>
                                                </g>
                                            </g>
                                            <g class="ldl-layer">
                                                <g class="ldl-ani" style="transform-origin: 50px 50px;">
                                                    <ellipse fill="#333" ry=".9" rx="1.3" cy="12.5" cx="50" style="fill: rgb(210, 243, 255);"></ellipse>
                                                </g>
                                            </g>
                                            <g class="ldl-layer">
                                                <g class="ldl-ani" style="transform-origin: 50px 50px;">
                                                <ellipse fill="#333" ry=".9" rx="1.3" cy="12.5" cx="54.3" style="fill: rgb(210, 243, 255);"></ellipse>
                                                </g>
                                            </g>
                                        </g>
                                    </g>
                                </g>
                                <g class="ldl-layer">
                                    <g class="ldl-ani" style="transform-origin: 50px 50px;">
                                        <path fill="#333" d="M65.7 57H34.3L33 77.7c-.2 4 2.7 7.3 6.4 7.3h21.1c3.7 0 6.7-3.4 6.4-7.3L65.7 57z" style="fill: rgb(210, 243, 255);"></path>
                                    </g>
                                </g>
                                <animate href="#salt"></animate>
                            </g>
                        </g>
                    </svg>