<svg xmlns="http://www.w3.org/2000/svg" viewBox="0 0 50 50" width="50" height="50" preserveAspectRatio="xMidYMid meet" style="width: 100%; height: 100%; transform: translate3d(0px, 0px, 0px);">
    <defs>
        <clipPath id="__lottie_element_24">
            <rect width="50" height="50" x="0" y="0"></rect>
        </clipPath>
    </defs>
    <g clip-path="url(#__lottie_element_24)">
        <g transform="matrix(1,0,0,1,0,-1)" opacity="1" style="display: block;">
            <g opacity="1" transform="matrix(1,0,0,1,25,13.027000427246094)">
                <path stroke-linecap="round" stroke-linejoin="round" fill-opacity="0" stroke="rgb(0,0,0" stroke-opacity="1" stroke-width="2" d=" M23,8.972999572753906 C23,8.972999572753906 0,-8.972999572753906 0,-8.972999572753906 C0,-8.972999572753906 -23,8.972999572753906 -23,8.972999572753906"></path>
            </g>
        </g>
        <g transform="matrix(1,0,0,1,0,0)" opacity="1" style="display: block;">
            <g opacity="1" transform="matrix(1,0,0,1,25,38.5)">
                <path stroke-linecap="round" stroke-linejoin="round" fill-opacity="0" stroke="rgb(0,0,0)" stroke-opacity="1" stroke-width="2" d=" M-6,8.437999725341797 C-6,8.437999725341797 -6,-9.5 -6,-9.5 C-6,-9.5 6,-9.5 6,-9.5 C6,-9.5 6,8.437999725341797 6,8.437999725341797"></path>
            </g>
        </g>
        <g transform="matrix(1,0,0,1,0,0)" opacity="1" style="display: block;">
            <g opacity="1" transform="matrix(1,0,0,1,25,34)">
                <path stroke-linecap="round" stroke-linejoin="round" fill-opacity="0" stroke="rgb(0,0,0)" stroke-opacity="1" stroke-width="2" d=" M20,-15 C20,-15 20,14 20,14 C20,14 -20,14 -20,14 C-20,14 -20,-15 -20,-15"></path>
            </g>
        </g>
    </g>
</svg>