<svg xmlns="http://www.w3.org/2000/svg" viewBox="0 0 50 50" width="50" height="50" preserveAspectRatio="xMidYMid meet" style="width: 100%; height: 100%; transform: translate3d(0px, 0px, 0px);"><defs><clipPath id="__lottie_element_102"><rect width="50" height="50" x="0" y="0"></rect></clipPath><filter id="__lottie_element_104" filterUnits="objectBoundingBox" x="0%" y="0%" width="100%" height="100%"><feComponentTransfer in="SourceGraphic"><feFuncA type="table" tableValues="1.0 0.0"></feFuncA></feComponentTransfer></filter><mask id="__lottie_element_103" mask-type="alpha"><g filter="url(#__lottie_element_104)"><rect width="50" height="50" x="0" y="0" fill="#ffffff" opacity="0"></rect><g transform="matrix(1,0,0,1,0,0)" opacity="1" style="display: block;"><g opacity="1" transform="matrix(1,0,0,1,25,35.47999954223633)"><path fill="rgb(244,255,160)" fill-opacity="1" d=" M24,-14.520000457763672 C24,-14.520000457763672 24,18.520000457763672 24,18.520000457763672 C24,18.520000457763672 -24,19.020000457763672 -24,19.020000457763672 C-24,19.020000457763672 -24,-14.520000457763672 -24,-14.520000457763672 C-24,-14.520000457763672 -8.65999984741211,-2.390000104904175 -8.65999984741211,-2.390000104904175 C-6.260000228881836,-4.269999980926514 -4.420000076293945,-5.710000038146973 -3.990000009536743,-6.039999961853027 C-2.490000009536743,-7.21999979019165 -0.9300000071525574,-7.480000019073486 0,-7.480000019073486 C0.9300000071525574,-7.480000019073486 2.490000009536743,-7.21999979019165 3.990000009536743,-6.039999961853027 C4.420000076293945,-5.710000038146973 6.260000228881836,-4.269999980926514 8.65999984741211,-2.390000104904175 C8.65999984741211,-2.390000104904175 24,-14.520000457763672 24,-14.520000457763672z"></path></g></g></g></mask><filter id="__lottie_element_111" filterUnits="objectBoundingBox" x="0%" y="0%" width="100%" height="100%"><feComponentTransfer in="SourceGraphic"><feFuncA type="table" tableValues="1.0 0.0"></feFuncA></feComponentTransfer></filter><mask id="__lottie_element_110" mask-type="alpha"><g filter="url(#__lottie_element_111)"><rect width="50" height="50" x="0" y="0" fill="#ffffff" opacity="0"></rect><g transform="matrix(1,0,0,1,0,0)" opacity="1" style="display: block;"><g opacity="1" transform="matrix(1,0,0,1,25,28.527000427246094)"><path fill="rgb(244,255,160)" fill-opacity="1" d=" M-23.889999389648438,-9.472999572753906 C-23.889999389648438,-9.472999572753906 -5.489999771118164,6.563000202178955 -3.990999937057495,7.868000030517578 C-2.492000102996826,9.17300033569336 -0.9309999942779541,9.472999572753906 0,9.472999572753906 C0.9309999942779541,9.472999572753906 2.492000102996826,9.175000190734863 3.990999937057495,7.869999885559082 C5.489999771118164,6.565000057220459 23.889999389648438,-9.472999572753906 23.889999389648438,-9.472999572753906"></path><path stroke-linecap="butt" stroke-linejoin="miter" fill-opacity="0" stroke-miterlimit="10" stroke="rgb(0,0,0)" stroke-opacity="1" stroke-width="1.996" d=" M-23.889999389648438,-9.472999572753906 C-23.889999389648438,-9.472999572753906 -5.489999771118164,6.563000202178955 -3.990999937057495,7.868000030517578 C-2.492000102996826,9.17300033569336 -0.9309999942779541,9.472999572753906 0,9.472999572753906 C0.9309999942779541,9.472999572753906 2.492000102996826,9.175000190734863 3.990999937057495,7.869999885559082 C5.489999771118164,6.565000057220459 23.889999389648438,-9.472999572753906 23.889999389648438,-9.472999572753906"></path><path stroke-linecap="butt" stroke-linejoin="miter" fill-opacity="0" stroke-miterlimit="10" stroke="rgb(0,0,0)" stroke-opacity="1" stroke-width="1.996" d=" M-23.889999389648438,-9.472999572753906 C-23.889999389648438,-9.472999572753906 -5.489999771118164,6.563000202178955 -3.990999937057495,7.868000030517578 C-2.492000102996826,9.17300033569336 -0.9309999942779541,9.472999572753906 0,9.472999572753906 C0.9309999942779541,9.472999572753906 2.492000102996826,9.175000190734863 3.990999937057495,7.869999885559082 C5.489999771118164,6.565000057220459 23.889999389648438,-9.472999572753906 23.889999389648438,-9.472999572753906"></path></g></g></g></mask><filter id="__lottie_element_127" filterUnits="objectBoundingBox" x="0%" y="0%" width="100%" height="100%"><feComponentTransfer in="SourceGraphic"><feFuncA type="table" tableValues="1.0 0.0"></feFuncA></feComponentTransfer></filter><mask id="__lottie_element_126" mask-type="alpha"><g filter="url(#__lottie_element_127)"><rect width="50" height="50" x="0" y="0" fill="#ffffff" opacity="0"></rect><g style="display: none;"><g><path></path></g></g></g></mask><filter id="__lottie_element_134" filterUnits="objectBoundingBox" x="0%" y="0%" width="100%" height="100%"><feComponentTransfer in="SourceGraphic"><feFuncA type="table" tableValues="1.0 0.0"></feFuncA></feComponentTransfer></filter><mask id="__lottie_element_133" mask-type="alpha"><g filter="url(#__lottie_element_134)"><rect width="50" height="50" x="0" y="0" fill="#ffffff" opacity="0"></rect><g style="display: none;"><g><path></path><path stroke-linecap="butt" stroke-linejoin="miter" fill-opacity="0" stroke-miterlimit="10"></path><path stroke-linecap="butt" stroke-linejoin="miter" fill-opacity="0" stroke-miterlimit="10"></path></g></g></g></mask></defs><g clip-path="url(#__lottie_element_102)"><g style="display: none;"><g><path stroke-linecap="round" stroke-linejoin="miter" fill-opacity="0" stroke-miterlimit="10"></path></g></g><g style="display: none;"><g><path stroke-linecap="butt" stroke-linejoin="miter" fill-opacity="0" stroke-miterlimit="10"></path><path stroke-linecap="butt" stroke-linejoin="miter" fill-opacity="0" stroke-miterlimit="10"></path></g></g><g style="display: none;"><g><path stroke-linecap="round" stroke-linejoin="round" fill-opacity="0"></path></g></g><g mask="url(#__lottie_element_133)" style="display: none;"><g><g><path stroke-linecap="butt" stroke-linejoin="miter" fill-opacity="0" stroke-miterlimit="10"></path></g><g><path stroke-linecap="butt" stroke-linejoin="miter" fill-opacity="0" stroke-miterlimit="10"></path></g><g><path stroke-linecap="butt" stroke-linejoin="miter" fill-opacity="0" stroke-miterlimit="10"></path></g></g></g><g mask="url(#__lottie_element_126)" style="display: none;"><g><g><path stroke-linecap="round" stroke-linejoin="round" fill-opacity="0"></path></g><g><path stroke-linecap="round" stroke-linejoin="round" fill-opacity="0"></path></g><g><path stroke-linecap="round" stroke-linejoin="round" fill-opacity="0"></path></g><g><path stroke-linecap="round" stroke-linejoin="round" fill-opacity="0"></path></g></g></g><g transform="matrix(1,0,0,1,0,0)" opacity="1" style="display: block;"><g opacity="1" transform="matrix(1,0,0,1,25,32)"><path stroke-linecap="round" stroke-linejoin="miter" fill-opacity="0" stroke-miterlimit="10" stroke="rgb(0,0,0)" stroke-opacity="1" stroke-width="2" d=" M-24,-17 C-24,-17 24,-17 24,-17 C24,-17 24,17 24,17 C24,17 -24,17 -24,17 C-24,17 -24,-17 -24,-17z"></path></g></g><g transform="matrix(1,0,0,1,0,0)" opacity="1" style="display: block;"><g opacity="1" transform="matrix(1,0,0,1,25,28.527000427246094)"><path stroke-linecap="butt" stroke-linejoin="miter" fill-opacity="0" stroke-miterlimit="10" stroke="rgb(0,0,0)" stroke-opacity="1" stroke-width="1.996" d=" M-23.889999389648438,-9.472999572753906 C-23.889999389648438,-9.472999572753906 -5.489999771118164,6.563000202178955 -3.990999937057495,7.868000030517578 C-2.492000102996826,9.17300033569336 -0.9309999942779541,9.472999572753906 0,9.472999572753906 C0.9309999942779541,9.472999572753906 2.492000102996826,9.175000190734863 3.990999937057495,7.869999885559082 C5.489999771118164,6.565000057220459 23.889999389648438,-9.472999572753906 23.889999389648438,-9.472999572753906"></path><path stroke-linecap="butt" stroke-linejoin="miter" fill-opacity="0" stroke-miterlimit="10" stroke="rgb(0,0,0)" stroke-opacity="1" stroke-width="1.996" d=" M-23.889999389648438,-9.472999572753906 C-23.889999389648438,-9.472999572753906 -5.489999771118164,6.563000202178955 -3.990999937057495,7.868000030517578 C-2.492000102996826,9.17300033569336 -0.9309999942779541,9.472999572753906 0,9.472999572753906 C0.9309999942779541,9.472999572753906 2.492000102996826,9.175000190734863 3.990999937057495,7.869999885559082 C5.489999771118164,6.565000057220459 23.889999389648438,-9.472999572753906 23.889999389648438,-9.472999572753906"></path></g></g><g style="display: none;"><g><path stroke-linecap="round" stroke-linejoin="round" fill-opacity="0"></path></g></g><g mask="url(#__lottie_element_110)" style="display: block;"><g transform="matrix(1,0,0,1,0,0)" opacity="1"><g opacity="0" transform="matrix(1,0,0,1,8.87600040435791,27.194000244140625)"><path stroke-linecap="butt" stroke-linejoin="miter" fill-opacity="0" stroke-miterlimit="10" stroke="rgb(0,0,0)" stroke-opacity="1" stroke-width="2" d=" M7.765999794006348,6.140999794006348 C7.765999794006348,6.140999794006348 -7.765999794006348,-6.140999794006348 -7.765999794006348,-6.140999794006348"></path></g><g opacity="0" transform="matrix(1,0,0,1,41.12300109863281,27.194000244140625)"><path stroke-linecap="butt" stroke-linejoin="miter" fill-opacity="0" stroke-miterlimit="10" stroke="rgb(0,0,0)" stroke-opacity="1" stroke-width="2" d=" M-7.765999794006348,6.140999794006348 C-7.765999794006348,6.140999794006348 7.765999794006348,-6.140999794006348 7.765999794006348,-6.140999794006348"></path></g><g opacity="1" transform="matrix(1,0,0,1,25,36.49599838256836)"><path stroke-linecap="butt" stroke-linejoin="miter" fill-opacity="0" stroke-miterlimit="10" stroke="rgb(0,0,0)" stroke-opacity="1" stroke-width="2" d=" M23.889999389648438,8.5 C23.889999389648438,8.5 5.489999771118164,-5.888999938964844 3.990999937057495,-7.059999942779541 C2.493000030517578,-8.230999946594238 0.9309999942779541,-8.5 0,-8.5 C-0.9309999942779541,-8.5 -2.493000030517578,-8.230999946594238 -3.990999937057495,-7.059999942779541 C-5.488999843597412,-5.888999938964844 -23.889999389648438,8.5 -23.889999389648438,8.5"></path></g></g></g><g mask="url(#__lottie_element_103)" style="display: block;"><g transform="matrix(1,0,0,1,0,16.5)" opacity="1"><g opacity="1" transform="matrix(1,0,0,1,25,27.24799919128418)"><path stroke-linecap="round" stroke-linejoin="round" fill-opacity="0" stroke="rgb(0,0,0)" stroke-opacity="1" stroke-width="2" d=" M-16,9.248000144958496 C-16,9.248000144958496 -16,-9.248000144958496 -16,-9.248000144958496 C-16,-9.248000144958496 16,-9.248000144958496 16,-9.248000144958496 C16,-9.248000144958496 16,9.248000144958496 16,9.248000144958496"></path></g><g opacity="1" transform="matrix(1,0,0,1,0,0)"><path stroke-linecap="round" stroke-linejoin="round" fill-opacity="0" stroke="rgb(0,0,0)" stroke-opacity="1" stroke-width="2" d=" M15,23 C15,23 35,23 35,23"></path></g><g opacity="1" transform="matrix(1,0,0,1,0,0)"><path stroke-linecap="round" stroke-linejoin="round" fill-opacity="0" stroke="rgb(0,0,0)" stroke-opacity="1" stroke-width="2" d=" M15,28 C15,28 35,28 35,28"></path></g><g opacity="1" transform="matrix(1,0,0,1,0,0)"><path stroke-linecap="round" stroke-linejoin="round" fill-opacity="0" stroke="rgb(0,0,0)" stroke-opacity="1" stroke-width="2" d=" M15,33 C15,33 35,33 35,33"></path></g></g></g></g></svg>