<svg xmlns="http://www.w3.org/2000/svg" viewBox="0 0 50 50" width="50" height="50" preserveAspectRatio="xMidYMid meet" style="width: 100%; height: 100%; transform: translate3d(0px, 0px, 0px);"><defs><clipPath id="__lottie_element_35"><rect width="50" height="50" x="0" y="0"></rect></clipPath></defs><g clip-path="url(#__lottie_element_35)"><g transform="matrix(1,0,0,1,0,0)" opacity="1" style="display: block;"><g opacity="1" transform="matrix(1,0,0,1,24.999000549316406,36.215999603271484)"><path stroke-linecap="butt" stroke-linejoin="round" fill-opacity="0" stroke="rgb(0,0,0)" stroke-opacity="1" stroke-width="2" d=" M21.375999450683594,-2.181999921798706 C20.322999954223633,-3.180999994277954 15.583000183105469,-7.381999969482422 0.0010000000474974513,-7.381999969482422 C-15.583000183105469,-7.381999969482422 -20.322999954223633,-3.187000036239624 -21.375999450683594,-2.187999963760376 C-22.427000045776367,-1.187999963760376 -21.881000518798828,4.230999946594238 -21.6560001373291,5.513000011444092 C-21.43400001525879,6.796999931335449 -20.488000869750977,7.382999897003174 -19.840999603271484,7.26800012588501 C-19.194000244140625,7.1519999504089355 -11.67199993133545,5.622000217437744 -10.805000305175781,5.409999847412109 C-10.232000350952148,5.269999980926514 -9.723999977111816,4.60099983215332 -9.458000183105469,3.7269999980926514 C-9.1899995803833,2.8529999256134033 -8.24899959564209,-1.1950000524520874 -8.24899959564209,-1.1950000524520874 C-8.24899959564209,-1.1950000524520874 -5.9039998054504395,-1.8819999694824219 0.0010000000474974513,-1.8830000162124634 C5.9019999504089355,-1.8839999437332153 8.25100040435791,-1.1950000524520874 8.25100040435791,-1.1950000524520874 C8.25100040435791,-1.1950000524520874 9.189000129699707,2.8540000915527344 9.460000038146973,3.7290000915527344 C9.72700023651123,4.603000164031982 10.230999946594238,5.2829999923706055 10.809000015258789,5.413000106811523 C11.652000427246094,5.603000164031982 19.125,7.156000137329102 19.841999053955078,7.2729997634887695 C20.474000930786133,7.375999927520752 21.43199920654297,6.802000045776367 21.658000946044922,5.519000053405762 C21.881999969482422,4.236000061035156 22.427000045776367,-1.1829999685287476 21.375999450683594,-2.181999921798706z"></path></g></g><g transform="matrix(1,0,0,1,0,0)" opacity="1" style="display: block;"><g opacity="1" transform="matrix(1,0,0,1,25,14.35200023651123)"><path stroke-linecap="round" stroke-linejoin="miter" fill-opacity="0" stroke-miterlimit="4" stroke="rgb(0,0,0)" stroke-opacity="1" stroke-width="2" d="M0 0"></path></g></g><g style="display: none;"><g><path stroke-linecap="round" stroke-linejoin="miter" fill-opacity="0" stroke-miterlimit="4"></path></g></g></g></svg>