<svg xmlns="http://www.w3.org/2000/svg" viewBox="0 0 50 50" width="50" height="50" preserveAspectRatio="xMidYMid meet" style="width: 100%; height: 100%; transform: translate3d(0px, 0px, 0px);"><defs><clipPath id="__lottie_element_74"><rect width="50" height="50" x="0" y="0"></rect></clipPath><filter id="__lottie_element_76" filterUnits="objectBoundingBox" x="0%" y="0%" width="100%" height="100%"><feComponentTransfer in="SourceGraphic"><feFuncA type="table" tableValues="1.0 0.0"></feFuncA></feComponentTransfer></filter><mask id="__lottie_element_75" mask-type="alpha"><g filter="url(#__lottie_element_76)"><rect width="50" height="50" x="0" y="0" fill="#ffffff" opacity="0"></rect><g style="display: none;"><path></path><g></g></g></g></mask><filter id="__lottie_element_89" filterUnits="objectBoundingBox" x="0%" y="0%" width="100%" height="100%"><feComponentTransfer in="SourceGraphic"><feFuncA type="table" tableValues="1.0 0.0"></feFuncA></feComponentTransfer></filter><mask id="__lottie_element_88" mask-type="alpha"><g filter="url(#__lottie_element_89)"><rect width="50" height="50" x="0" y="0" fill="#ffffff" opacity="0"></rect><g transform="matrix(1,0,0,1,7,0)" opacity="1" style="display: block;"><g opacity="1" transform="matrix(1,0,0,1,18,25)"><path fill="rgb(255,0,0)" fill-opacity="1" d=" M19.25,-20.5 C19.93899917602539,-16.59600067138672 17.983999252319336,24.23699951171875 17.983999252319336,24.23699951171875 C17.983999252319336,24.23699951171875 0.006000000052154064,24.06599998474121 0.006000000052154064,24.06599998474121 C0.006000000052154064,24.06599998474121 0,20 0,20 C0,20 -13,5.086999893188477 -13,-7 C-13,-14.217000007629395 -7.2170000076293945,-20 0,-20 C0,-20 0,-24.125 0.1550000011920929,-24.749000549316406 C0,-24.875 19.25,-20 19.25,-20.5z"></path></g></g></g></mask></defs><g clip-path="url(#__lottie_element_74)"><g transform="matrix(1,0,0,1,14,7)" opacity="1" style="display: block;"><g opacity="1" transform="matrix(1,0,0,1,11,11)"><path stroke-linecap="butt" stroke-linejoin="round" fill-opacity="0" stroke="rgb(0,0,0)" stroke-opacity="1" stroke-width="2" d=" M0,-6 C-3.312999963760376,-6 -6,-3.312999963760376 -6,0 C-6,3.312999963760376 -3.312999963760376,6 0,6 C3.312999963760376,6 6,3.312999963760376 6,0 C6,-3.312999963760376 3.312999963760376,-6 0,-6z"></path></g></g><g transform="matrix(1,0,0,1,7,0)" opacity="1" style="display: block;"><g opacity="1" transform="matrix(1,0,0,1,18,25)"><path stroke-linecap="butt" stroke-linejoin="round" fill-opacity="0" stroke="rgb(0,0,0)" stroke-opacity="1" stroke-width="2" d=" M13,-7 C13,4.826000213623047 0,20 0,20 C0,20 -13,5.086999893188477 -13,-7 C-13,-14.217000007629395 -7.2170000076293945,-20 0,-20 C7.2179999351501465,-20 13,-14.217000007629395 13,-7z"></path></g></g><g mask="url(#__lottie_element_88)" style="display: block;"><g transform="matrix(1,0,0,1,7,0)" opacity="1"><g opacity="1" transform="matrix(1,0,0,1,18,25)"><path stroke-linecap="butt" stroke-linejoin="round" fill-opacity="0" stroke="rgb(0,0,0)" stroke-opacity="1" stroke-width="2" d=" M10.812999725341797,-6.875 C10.812999725341797,1.3799999952316284 0.0010000000474974513,20.00200080871582 0.0010000000474974513,20.00200080871582 C0.0010000000474974513,20.00200080871582 0,20 0,20 C0,20 -13,5.086999893188477 -13,-7 C-13,-14.217000007629395 -7.2170000076293945,-20 0,-20 C0,-20 0.03099999949336052,-19.999000549316406 0.03099999949336052,-19.999000549316406 C0.03099999949336052,-19.999000549316406 10.812999725341797,-12.324000358581543 10.812999725341797,-6.875z"></path></g></g></g><g style="display: none;"><g><path stroke-linecap="butt" stroke-linejoin="round" fill-opacity="0"></path></g></g><g style="display: none;"><g><path stroke-linecap="butt" stroke-linejoin="round" fill-opacity="0"></path></g></g><g mask="url(#__lottie_element_75)" style="display: none;"><g><g><path stroke-linecap="butt" stroke-linejoin="round" fill-opacity="0"></path></g></g></g></g></svg>